<svg width="342" height="150" viewBox="0 0 342 150" fill="none" xmlns="http://www.w3.org/2000/svg">
<path d="M108.862 18.6285H40.1693L8.84857 74.5326L40.9734 130.399H108.859L140.167 74.514L108.862 18.6285Z" fill="#01579B"/>
<path d="M75.0046 43.4665H52.7808V105.561H75.0046C91.8944 105.561 105.561 91.6739 105.561 74.5139C105.561 57.354 91.8944 43.4665 75.0046 43.4665ZM74.514 93.1424H65.1998V55.8855H74.514C84.7907 55.8855 93.1425 64.2372 93.1425 74.5139C93.1425 84.7907 84.7907 93.1424 74.514 93.1424Z" fill="white"/>
<path d="M127.899 118.551C127.899 116.148 128.362 114.006 129.287 112.125C130.213 110.245 131.541 108.789 133.273 107.759C135.019 106.729 137.042 106.214 139.341 106.214C142.609 106.214 145.274 107.215 147.334 109.215C149.409 111.215 150.565 113.932 150.804 117.365L150.849 119.022C150.849 122.738 149.812 125.724 147.737 127.978C145.662 130.217 142.878 131.336 139.385 131.336C135.892 131.336 133.101 130.217 131.011 127.978C128.937 125.739 127.899 122.694 127.899 118.842V118.551ZM134.37 119.022C134.37 121.32 134.803 123.082 135.669 124.306C136.534 125.515 137.773 126.119 139.385 126.119C140.953 126.119 142.177 125.522 143.057 124.328C143.938 123.119 144.378 121.193 144.378 118.551C144.378 116.297 143.938 114.551 143.057 113.312C142.177 112.073 140.938 111.454 139.341 111.454C137.758 111.454 136.534 112.073 135.669 113.312C134.803 114.536 134.37 116.439 134.37 119.022ZM169.343 128.425C167.746 130.366 165.537 131.336 162.716 131.336C160.118 131.336 158.133 130.59 156.76 129.097C155.402 127.604 154.708 125.418 154.678 122.537V106.662H161.148V122.313C161.148 124.836 162.298 126.097 164.596 126.097C166.791 126.097 168.298 125.336 169.119 123.813V106.662H175.612V130.888H169.522L169.343 128.425ZM202.324 118.999C202.324 122.88 201.495 125.91 199.838 128.09C198.182 130.254 195.868 131.336 192.897 131.336C190.27 131.336 188.173 130.329 186.606 128.313L186.315 130.888H180.493V96.4972H186.964V108.834C188.457 107.088 190.42 106.214 192.853 106.214C195.808 106.214 198.122 107.304 199.794 109.483C201.48 111.648 202.324 114.7 202.324 118.641V118.999ZM195.853 118.529C195.853 116.081 195.465 114.297 194.689 113.178C193.912 112.043 192.756 111.476 191.218 111.476C189.158 111.476 187.74 112.319 186.964 114.006V123.567C187.755 125.268 189.188 126.119 191.263 126.119C193.353 126.119 194.726 125.089 195.383 123.029C195.696 122.044 195.853 120.544 195.853 118.529ZM213.16 130.888H206.667V96.4972H213.16V130.888ZM229.662 131.336C226.109 131.336 223.214 130.246 220.975 128.067C218.75 125.888 217.638 122.985 217.638 119.357V118.73C217.638 116.297 218.109 114.126 219.049 112.215C219.989 110.289 221.318 108.812 223.034 107.782C224.766 106.737 226.736 106.214 228.945 106.214C232.259 106.214 234.864 107.259 236.759 109.349C238.67 111.439 239.625 114.402 239.625 118.238V120.88H224.199C224.408 122.462 225.035 123.731 226.079 124.686C227.139 125.642 228.475 126.119 230.087 126.119C232.58 126.119 234.528 125.216 235.931 123.41L239.11 126.97C238.14 128.343 236.827 129.418 235.17 130.194C233.513 130.955 231.677 131.336 229.662 131.336ZM228.923 111.454C227.639 111.454 226.594 111.887 225.788 112.752C224.997 113.618 224.49 114.857 224.266 116.469H233.267V115.954C233.237 114.521 232.849 113.417 232.102 112.64C231.356 111.849 230.296 111.454 228.923 111.454ZM260.65 122.335C260.65 121.067 260.202 120.096 259.306 119.425C258.411 118.738 256.799 118.021 254.47 117.275C252.141 116.514 250.298 115.768 248.94 115.036C245.238 113.036 243.387 110.342 243.387 106.953C243.387 105.192 243.88 103.625 244.865 102.251C245.865 100.863 247.29 99.7811 249.141 99.0049C251.007 98.2287 253.097 97.8406 255.41 97.8406C257.739 97.8406 259.814 98.266 261.635 99.1168C263.456 99.9527 264.866 101.139 265.867 102.677C266.882 104.214 267.389 105.961 267.389 107.916H260.672C260.672 106.423 260.202 105.267 259.261 104.446C258.321 103.61 257 103.192 255.298 103.192C253.656 103.192 252.38 103.543 251.47 104.244C250.559 104.931 250.104 105.841 250.104 106.976C250.104 108.036 250.634 108.924 251.694 109.64C252.768 110.357 254.343 111.028 256.418 111.655C260.239 112.805 263.023 114.23 264.769 115.932C266.516 117.633 267.389 119.753 267.389 122.291C267.389 125.112 266.322 127.328 264.187 128.94C262.053 130.537 259.179 131.336 255.567 131.336C253.059 131.336 250.776 130.881 248.716 129.97C246.656 129.045 245.081 127.784 243.991 126.186C242.917 124.589 242.379 122.738 242.379 120.634H249.119C249.119 124.231 251.268 126.03 255.567 126.03C257.164 126.03 258.411 125.709 259.306 125.067C260.202 124.41 260.65 123.5 260.65 122.335ZM280.577 121.731L285.055 106.662H291.996L282.256 134.65L281.719 135.926C280.271 139.09 277.882 140.673 274.554 140.673C273.613 140.673 272.658 140.531 271.688 140.247V135.344L272.673 135.366C273.897 135.366 274.808 135.18 275.405 134.807C276.017 134.433 276.494 133.814 276.838 132.948L277.599 130.955L269.113 106.662H276.076L280.577 121.731ZM300.504 106.662L300.705 109.461C302.437 107.297 304.758 106.214 307.669 106.214C310.236 106.214 312.147 106.968 313.401 108.476C314.654 109.983 315.296 112.237 315.326 115.238V130.888H308.855V115.394C308.855 114.021 308.557 113.029 307.96 112.417C307.363 111.79 306.37 111.476 304.982 111.476C303.161 111.476 301.795 112.252 300.884 113.805V130.888H294.414V106.662H300.504ZM330.327 126.119C331.521 126.119 332.492 125.791 333.238 125.134C333.984 124.477 334.372 123.604 334.402 122.514H340.47C340.455 124.156 340.007 125.664 339.127 127.037C338.246 128.396 337.037 129.455 335.499 130.217C333.977 130.963 332.29 131.336 330.439 131.336C326.976 131.336 324.245 130.239 322.245 128.045C320.244 125.836 319.244 122.791 319.244 118.91V118.484C319.244 114.753 320.237 111.775 322.222 109.551C324.207 107.327 326.932 106.214 330.395 106.214C333.425 106.214 335.85 107.08 337.671 108.812C339.507 110.528 340.44 112.82 340.47 115.685H334.402C334.372 114.432 333.984 113.417 333.238 112.64C332.492 111.849 331.507 111.454 330.283 111.454C328.775 111.454 327.633 112.006 326.857 113.111C326.096 114.2 325.715 115.977 325.715 118.439V119.111C325.715 121.604 326.096 123.395 326.857 124.485C327.618 125.574 328.775 126.119 330.327 126.119Z" fill="black"/>
</svg>
